<?xml version="1.0" standalone="no"?><!DOCTYPE svg PUBLIC "-//W3C//DTD SVG 1.1//EN" "http://www.w3.org/Graphics/SVG/1.1/DTD/svg11.dtd"><svg t="1726022789930" class="icon" viewBox="0 0 1024 1024" version="1.1" xmlns="http://www.w3.org/2000/svg" p-id="13622" xmlns:xlink="http://www.w3.org/1999/xlink" width="200" height="200"><path d="M1017.68192 724.6848c26.15296 99.45088-31.71328 201.69728-129.08544 228.3008-15.85152 4.3008-31.77472 6.38976-47.45216 6.38976-80.75264 0-154.65472-54.94784-176.5376-138.22976l-11.0592-44.0832c-6.9632-24.2176-28.90752-41.99424-54.8864-41.99424H426.0864c-25.97888 0-47.9744 17.77664-54.8864 41.99424L359.6288 821.1456c-21.94432 83.28192-95.78496 138.22976-176.5376 138.22976-15.67744 0-31.60064-2.02752-47.45216-6.38976C38.0928 926.38208-19.83488 824.13568 6.31808 724.6848l97.83296-372.30592c21.77024-82.98496 95.49824-138.82368 175.84128-139.24352l203.44832 0.06144v-38.53312c0-61.0304 48.6912-110.66368 108.544-110.66368 15.80032 0 28.49792 13.0048 28.49792 29.05088 0 16.04608-12.7488 29.11232-28.54912 29.11232-28.38528 0-51.43552 23.5008-51.43552 52.4288v38.54336l201.99424 0.06144h0.52224c80.75264 0 154.65472 54.94784 176.5376 138.21952l98.12992 373.26848zM949.9648 837.0176a128.9728 128.9728 0 0 0 12.41088-97.36192L864.256 366.39744c-14.68416-55.9616-64.60416-95.0272-121.30304-95.0272h-0.52224l-462.37696-0.07168c-26.74688 0.18432-53.48352 9.66656-75.25376 26.6752a129.01376 129.01376 0 0 0-45.52704 69.4272L61.44 739.7376a129.59744 129.59744 0 0 0 12.58496 97.2288c16.7936 29.65504 43.93984 50.83136 76.35968 59.71968 10.7008 2.9184 21.7088 4.4032 32.64512 4.4032 56.69888 0 106.61888-39.0656 121.30304-95.0272l11.58144-44.0832 0.18432-0.59392 0.17408-0.59392a117.4528 117.4528 0 0 1 40.48896-60.07808 111.99488 111.99488 0 0 1 69.2224-23.79776h172.55424c25.02656-0.07168 49.3568 8.2944 69.2224 23.79776a117.5552 117.5552 0 0 1 40.4992 60.07808l0.28672 0.95232 0.23552 0.95232 10.94656 43.7248c14.7968 55.78752 64.59392 94.74048 121.2416 94.74048 10.93632 0 21.94432-1.49504 32.64512-4.41344 32.48128-8.88832 59.56608-30.07488 76.35968-59.71968zM293.74464 383.2832c69.39648 0 125.68576 57.38496 125.68576 128.13312 0 70.7584-56.28928 128.14336-125.68576 128.14336-69.39648 0-125.696-57.3952-125.696-128.14336 0-70.7584 56.23808-128.14336 125.696-128.14336z m0 198.0416c37.79584 0 68.51584-31.36512 68.51584-69.90848 0-38.53312-30.72-69.91872-68.51584-69.91872-37.80608 0-68.57728 31.3856-68.57728 69.91872 0 38.54336 30.7712 69.91872 68.57728 69.91872zM691.4048 424.02816c0-22.48704 17.90976-40.79616 40.02816-40.79616 22.1184 0 40.01792 18.24768 40.01792 40.79616 0 22.55872-17.89952 40.8064-40.01792 40.8064s-40.02816-18.24768-40.02816-40.8064z m0 174.7968c0-22.54848 17.90976-40.8064 40.02816-40.8064 22.1184 0 40.01792 18.25792 40.01792 40.8064s-17.89952 40.8064-40.01792 40.8064-40.02816-18.25792-40.02816-40.8064z m85.71904-87.3984c0-22.54848 17.90976-40.8064 40.02816-40.8064 22.1184 0 40.02816 18.25792 40.02816 40.8064s-17.90976 40.8064-40.02816 40.8064c-22.1184 0-40.02816-18.25792-40.02816-40.8064z m-171.38688 0c0-22.54848 17.90976-40.8064 40.02816-40.8064 22.1184 0 40.01792 18.25792 40.01792 40.8064s-17.89952 40.8064-40.01792 40.8064-40.02816-18.25792-40.02816-40.8064z" fill="#6eb6ff" p-id="13623"></path></svg>