<?xml version="1.0" standalone="no"?><!DOCTYPE svg PUBLIC "-//W3C//DTD SVG 1.1//EN" "http://www.w3.org/Graphics/SVG/1.1/DTD/svg11.dtd"><svg t="1726023166954" class="icon" viewBox="0 0 1024 1024" version="1.1" xmlns="http://www.w3.org/2000/svg" p-id="23157" xmlns:xlink="http://www.w3.org/1999/xlink" width="200" height="200"><path d="M507.2 152c9.1 0 17.8-3.6 24.2-10 6.4-6.4 10-15.1 10-24.2V49.1c0-18.9-15.3-34.3-34.3-34.3s-34.3 15.3-34.3 34.3v68.6c0.1 18.9 15.5 34.3 34.4 34.3zM100 273.2c13.5 13 34.8 12.8 48.1-0.4 13.2-13.2 13.4-34.6 0.4-48.1L100 176.2c-13.5-13-34.8-12.8-48.1 0.4-13.2 13.2-13.4 34.6-0.4 48.1l48.5 48.5z m871.2-62.7c-13.4-13.4-35.1-13.4-48.5 0L874.3 259c-13 13.5-12.8 34.8 0.4 48.1 13.2 13.2 34.6 13.4 48.1 0.4l48.5-48.5c13.3-13.4 13.3-35.1-0.1-48.5z m-35.5 729.9h-51.4v-377c0-208.3-168.8-377.1-377.1-377.1S130.1 355.1 130.1 563.4v377.1H78.7c-18.9 0-34.3 15.3-34.3 34.3s15.3 34.3 34.3 34.3h857c18.9 0 34.3-15.3 34.3-34.3s-15.4-34.4-34.3-34.4z m-394.2 0V803.3c0-18.9-15.3-34.3-34.3-34.3s-34.3 15.3-34.3 34.3v137.1H198.7v-377c0-170.4 138.1-308.5 308.5-308.5S815.7 393 815.7 563.4v377.1H541.5z m0 0" fill="#f67280" p-id="23158"></path><path d="M531.4 354.3l-128 200.9c-2.1 3.3 0.3 7.6 4.2 7.6h102.6c3 0 5.4 2.7 4.9 5.7l-23.5 141.2c-0.9 5.3 6.1 8 9 3.5l128-200.9c2.1-3.3-0.3-7.6-4.2-7.6H521.8c-3 0-5.4-2.7-4.9-5.7l23.5-141.2c0.9-5.3-6.1-8-9-3.5z" fill="#f67280" p-id="23159"></path></svg>