<?xml version="1.0" standalone="no"?><!DOCTYPE svg PUBLIC "-//W3C//DTD SVG 1.1//EN" "http://www.w3.org/Graphics/SVG/1.1/DTD/svg11.dtd"><svg t="1726022423158" class="icon" viewBox="0 0 1024 1024" version="1.1" xmlns="http://www.w3.org/2000/svg" p-id="5976" xmlns:xlink="http://www.w3.org/1999/xlink" width="200" height="200"><path d="M558.016 598.933333a45.909333 45.909333 0 0 1-46.037333 45.952 45.909333 45.909333 0 0 1-46.058667-45.952V374.784c0-25.450667 20.544-45.952 46.058667-45.952 25.493333 0 46.037333 20.48 46.037333 45.952v224.149333z m-46.378667 189.44a45.909333 45.909333 0 0 1-46.037333-45.952c0-25.450667 20.522667-45.952 46.037333-45.952s46.037333 20.48 46.037334 45.952a45.909333 45.909333 0 0 1-46.037334 45.952z m456.149334 30.08S612.352 211.818667 566.293333 135.786667c-54.314667-65.472-116.906667 0-116.906666 0S133.333333 680.277333 75.349333 778.794667c-80.810667 114.709333 13.589333 134.890667 13.589334 134.890666h861.930666c56.64-21.504 16.896-95.210667 16.896-95.210666z" fill="#F4B400" p-id="5977"></path></svg>